<?xml version="1.0" encoding="UTF-8"?>
<svg id="roter-toolbar-icon" version="1.1" xmlns="http://www.w3.org/2000/svg" viewBox="0 0 16 16">
  <path fill="#000000" d="M5.5 2.25h5c.69 0 1.25.56 1.25 1.25v9c0 .69-.56 1.25-1.25 1.25h-5c-.69 0-1.25-.56-1.25-1.25v-9c0-.69.56-1.25 1.25-1.25Zm.25 1.5v8.5h4.5v-8.5h-4.5Z"/>
  <path fill="#000000" d="M1.95 8.68c.26 0 .47.21.47.47 0 1.3.55 2.48 1.42 3.32l.02-.72c.01-.25.22-.45.47-.45.27.01.47.23.46.49l-.06 1.76c-.01.26-.22.45-.47.45H2.5c-.26 0-.47-.21-.47-.47s.21-.47.47-.47h.62a5.57 5.57 0 0 1-1.64-3.91c0-.26.21-.47.47-.47Z"/>
  <path fill="#000000" d="M13.5 2c.26 0 .47.21.47.47s-.21.47-.47.47h-.62a5.57 5.57 0 0 1 1.64 3.91c0 .26-.21.47-.47.47s-.47-.21-.47-.47c0-1.3-.55-2.48-1.42-3.32l-.02.72c-.01.25-.22.45-.47.45a.46.46 0 0 1-.46-.49l.06-1.76c.01-.26.22-.45.47-.45h1.76Z"/>
</svg>
